<?xml version="1.0" encoding="UTF-8" standalone="no"?>
<svg
   xmlns:dc="http://purl.org/dc/elements/1.1/"
   xmlns:cc="http://creativecommons.org/ns#"
   xmlns:rdf="http://www.w3.org/1999/02/22-rdf-syntax-ns#"
   xmlns:svg="http://www.w3.org/2000/svg"
   xmlns="http://www.w3.org/2000/svg"
   viewBox="0 0 469.33334 385.33334"
   height="385.33334"
   width="469.33334"
   xml:space="preserve"
   id="svg2"
   version="1.1"><metadata
     id="metadata8"><rdf:RDF><cc:Work
         rdf:about=""><dc:format>image/svg+xml</dc:format><dc:type
           rdf:resource="http://purl.org/dc/dcmitype/StillImage" /></cc:Work></rdf:RDF></metadata><defs
     id="defs6"><clipPath
       id="clipPath22"
       clipPathUnits="userSpaceOnUse"><path
         style="clip-rule:evenodd"
         id="path20"
         d="m 40,237 c 0,6.62741 5.372581,12 12,12 h 248 c 6.62741,0 12,-5.37259 12,-12 V 52 c 0,-6.627411 -5.37259,-12 -12,-12 H 51.999996 C 45.372578,40 40,45.372589 40,52 Z" /></clipPath></defs><g
     transform="matrix(1.3333333,0,0,-1.3333333,0,385.33333)"
     id="g10"><g
       transform="translate(40,40)"
       id="g12"><path
         id="path14"
         style="fill:#eaeaea;fill-opacity:1;fill-rule:nonzero;stroke:none"
         d="m 0,197 c 0,6.62741 5.372583,12 12,12 h 248 c 6.62741,0 12,-5.37259 12,-12 V 12 C 272,5.372589 266.62741,0 260,0 H 11.999995 C 5.372579,0 0,5.372589 0,12 Z" /></g><g
       id="g16"><g
         clip-path="url(#clipPath22)"
         id="g18"><g
           transform="translate(40,40)"
           id="g24"><path
             id="path26"
             style="fill:#757575;fill-opacity:1;fill-rule:nonzero;stroke:none"
             d="m 12,208 h 248 v 2 H 12 Z M 271,197 V 12 h 2 V 197 Z M 260,1 H 11.999995 V -1 H 260 Z M 1,12 V 197 H -1 V 12 Z M 11.999995,1 C 5.924864,1 1,5.924866 1,12 H -1 C -1,4.820297 4.820293,-1 11.999995,-1 Z M 271,12 C 271,5.924866 266.07513,1 260,1 v -2 c 7.17969,0 13,5.820297 13,13 z m -11,196 c 6.07513,0 11,-4.92487 11,-11 h 2 c 0,7.1797 -5.82028,13 -13,13 z m -248,2 c -7.179701,0 -13,-5.8203 -13,-13 h 2 c 0,6.07513 4.924868,11 11,11 z" /></g></g></g><g
       transform="translate(84.4375,174)"
       id="g28"><path
         id="path30"
         style="fill:#815c13;fill-opacity:1;fill-rule:nonzero;stroke:none"
         d="m 18.548429,39 c 1.677735,0 3.140172,-1.141838 3.547085,-2.769478 l 0.213105,-0.852424 C 26.40991,33.419464 29.25,29.231499 29.25,24.375 v -3.164944 c 0,-0.553487 0.188372,-1.090494 0.53413,-1.522691 l 3.27261,-4.090758 C 33.748253,14.732208 34.125,13.658197 34.125,12.55122 V 9.75 c 0,-2.019291 -1.636959,-3.65625 -3.65625,-3.65625 H 24.273895 C 23.693674,2.635288 20.685839,0 17.0625,0 13.439161,0 10.431326,2.635288 9.851106,6.09375 H 3.65625 C 1.63696,6.09375 0,7.730709 0,9.75 v 2.80122 c 0,1.106975 0.376744,2.180988 1.068265,3.045389 l 3.272602,4.090754 C 4.686628,20.119564 4.875,20.656572 4.875,21.210056 V 24.375 c 0,4.856499 2.840086,9.044464 6.941381,11.003098 l 0.213107,0.852424 C 12.436399,37.858162 13.898836,39 15.576571,39 Z" /></g><g
       transform="translate(86.875,176.4375)"
       id="g32"><path
         id="path34"
         style="fill:#feaa01;fill-opacity:1;fill-rule:nonzero;stroke:none"
         d="M 17.293291,33.201839 C 17.157654,33.744389 16.670174,34.125 16.110929,34.125 h -2.971858 c -0.559245,0 -1.046724,-0.380611 -1.182361,-0.923161 L 11.605881,31.798525 C 11.505896,31.398584 11.20812,31.081358 10.828462,30.920706 7.329784,29.440243 4.875,25.975544 4.875,21.9375 v -3.164944 c 0,-1.106971 -0.376744,-2.180986 -1.068265,-3.045387 L 0.534132,11.636415 C 0.188372,11.204214 0,10.667208 0,10.11372 V 7.3125 C 0,6.639404 0.545654,6.09375 1.218751,6.09375 H 9.75 V 4.875 C 9.75,2.182611 11.932612,0 14.625,0 17.317389,0 19.5,2.182611 19.5,4.875 v 1.21875 h 8.53125 c 0.673096,0 1.21875,0.545654 1.21875,1.21875 v 2.80122 c 0,0.553488 -0.188372,1.090494 -0.534134,1.522695 l -3.272602,4.090754 C 24.751743,16.59157 24.375,17.665583 24.375,18.772556 V 21.9375 c 0,4.038044 -2.454786,7.502743 -5.953461,8.983204 -0.379657,0.160652 -0.677435,0.477882 -0.77742,0.877823 z" /></g><g
       transform="translate(96.625,178.875)"
       id="g36"><path
         id="path38"
         style="fill:#fff8eb;fill-opacity:1;fill-rule:nonzero;stroke:none"
         d="M 9.75,4.875 C 9.75,2.182612 7.567388,0 4.875,0 2.182612,0 0,2.182612 0,4.875 0,7.567388 2.182612,9.75 4.875,9.75 7.567388,9.75 9.75,7.567388 9.75,4.875 Z" /></g><g
       transform="translate(86.875,184.96875)"
       id="g40"><path
         id="path42"
         d="m 17.293291,24.670591 c -0.135637,0.542548 -0.623117,0.923159 -1.182362,0.923159 h -2.971858 c -0.559245,0 -1.046724,-0.380613 -1.182361,-0.923161 L 11.605881,23.267275 C 11.505896,22.867334 11.208119,22.550108 10.828462,22.389456 7.329784,20.908993 4.875,17.444294 4.875,13.40625 V 10.241307 C 4.875,9.134335 4.498256,8.06032 3.806735,7.195919 L 0.534132,3.105165 C 0.188372,2.672964 0,2.135958 0,1.58247 V 1.21875 C 0,0.545654 0.545654,0 1.218751,0 H 28.03125 C 28.704346,0 29.25,0.545654 29.25,1.21875 v 0.36372 c 0,0.553488 -0.188372,1.090494 -0.534134,1.522695 L 25.443264,7.195919 C 24.751743,8.06032 24.375,9.134333 24.375,10.241307 v 3.164943 c 0,4.038044 -2.454784,7.502743 -5.953461,8.983204 -0.379659,0.160652 -0.677435,0.477882 -0.77742,0.877823 z" /></g><g
       transform="translate(91.140564,187.17613)"
       id="g44"><path
         id="path46"
         style="fill:#fff8eb;fill-opacity:1;fill-rule:evenodd;stroke:none"
         d="m 10.359442,15.464493 c -2.35584,0 -4.265625,-1.909785 -4.265625,-4.265625 V 6.815175 c 0,-1.522088 -0.518023,-2.998857 -1.468863,-4.187409 L 3.255718,0.916222 C 2.624997,0.127821 1.474572,-4e-6 0.686171,0.630718 c -0.7884,0.63072 -0.916225,1.781145 -0.285504,2.569546 l 1.369235,1.711543 c 0.4322,0.540251 0.667665,1.211511 0.667665,1.903368 v 4.383693 c 0,4.37513 3.546744,7.921875 7.921875,7.921875 1.009645,0 1.828124,-0.81848 1.828124,-1.828125 0,-1.009646 -0.818479,-1.828125 -1.828124,-1.828125 z" /></g><g
       transform="translate(140,186.68401)"
       id="g48"><path
         id="path50"
         style="fill:#1e1e1e;fill-opacity:1;fill-rule:nonzero;stroke:none"
         d="M 0,-1.152008 Z M 3.12,15.191994 1.2,15.479992 v 1.200001 H 5.664001 L 13.656,4.967993 15,2.423992 v 12.768002 l -2.087999,0.287998 v 1.200001 H 18.576 v -1.200001 l -1.92,-0.287998 V -1.152008 H 14.76 l -8.16,11.976 -1.848,3.168001 V 0.263992 L 7.032001,0.023993 V -1.152008 H 1.2 V 0.023993 L 3.12,0.287992 Z M 18.715876,-1.152008 Z m 1.08,6.696001 c 0,1.440001 0.295999,2.688 0.888,3.743999 0.592001,1.056001 1.368,1.856 2.327999,2.4 0.976,0.560001 2.016001,0.840001 3.120001,0.840001 2.016001,0 3.528,-0.64 4.536001,-1.920001 1.024,-1.280001 1.535999,-2.960001 1.535999,-5.040001 0,-1.455999 -0.295999,-2.712 -0.888,-3.767999 -0.592001,-1.056 -1.375999,-1.855999 -2.351999,-2.4 -0.960001,-0.544001 -1.992001,-0.816 -3.096001,-0.816 -2.016001,0 -3.535999,0.639999 -4.559999,1.92 -1.008002,1.280001 -1.512001,2.960001 -1.512001,5.040001 z m 6.215999,-5.592001 c 1.104002,0 1.952002,0.455999 2.544001,1.368 0.592001,0.912001 0.888,2.264 0.888,4.056 0,1.776001 -0.271999,3.184002 -0.816,4.224001 -0.544,1.04 -1.416,1.559999 -2.616001,1.559999 -1.103998,0 -1.959999,-0.456 -2.567999,-1.368 -0.592001,-0.912 -0.888,-2.264 -0.888,-4.056 0,-1.775999 0.28,-3.184 0.84,-4.224 0.559999,-1.04 1.431999,-1.56 2.615999,-1.56 z m 6.849564,-1.104 z m 5.184002,-0.24 c -0.911999,0 -1.591999,0.208 -2.040001,0.624001 -0.448002,0.415998 -0.672001,1.127998 -0.672001,2.135999 v 9.216 h -1.728001 v 1.080001 c 0.08,0.016 0.304001,0.072 0.672001,0.167999 0.368,0.096 0.615997,0.184001 0.744,0.264001 0.256,0.144 0.455997,0.431999 0.599998,0.863998 0.128002,0.304001 0.280003,0.792002 0.456001,1.464002 0.175999,0.672 0.279999,1.072001 0.312001,1.2 h 1.416 l 0.048,-3.456001 h 4.008 v -1.584 h -4.008 v -7.368 c 0,-0.912001 0.024,-1.552 0.072,-1.92 0.064,-0.368 0.184002,-0.608 0.360001,-0.719999 0.192001,-0.112002 0.512001,-0.168002 0.959999,-0.168002 0.432003,0 0.904003,0.056 1.416,0.168002 0.528,0.111999 0.936001,0.231998 1.224003,0.359998 l 0.359997,-1.08 c -0.383999,-0.288 -1.008,-0.567999 -1.871998,-0.84 -0.848,-0.271999 -1.624001,-0.407999 -2.327999,-0.407999 z m 4.133434,0.24 z m 3.911999,15.720001 c -0.511998,0 -0.896,0.144 -1.152001,0.431999 -0.256,0.288001 -0.383999,0.656001 -0.383999,1.104 0,0.512001 0.152001,0.936001 0.456002,1.272 0.319999,0.336 0.751999,0.504001 1.295997,0.504001 0.544003,0 0.944001,-0.144001 1.200001,-0.432001 0.256001,-0.288 0.384003,-0.656 0.384003,-1.104 0,-0.543999 -0.16,-0.975999 -0.480004,-1.295999 -0.303997,-0.32 -0.735996,-0.48 -1.295997,-0.48 h -0.024 z m -0.959999,-4.248001 -1.824002,0.432 v 1.272001 l 3.720002,0.455999 h 0.048 l 0.552002,-0.431999 V 0.215992 l 1.919998,-0.191999 v -1.176001 h -6.360001 v 1.176001 l 1.944001,0.215999 z m 4.584186,-11.472 z m 3,11.736 h -2.256 v 1.104 l 2.256,0.456 v 1.128 c 0,0.992 0.256001,1.904001 0.768002,2.736 0.528,0.832001 1.208,1.488001 2.039997,1.968002 0.848003,0.495998 1.744003,0.744 2.688,0.744 0.544002,0 1.016002,-0.072 1.416,-0.216 v -2.400002 c -0.144001,0.128003 -0.431999,0.248002 -0.863998,0.360001 -0.416001,0.127998 -0.880002,0.192 -1.391999,0.192 -0.752002,0 -1.304001,-0.199999 -1.656002,-0.600001 -0.335998,-0.384 -0.503998,-1.056 -0.503998,-2.016 v -1.896 h 3.311997 v -1.56 h -3.311997 v -10.368 L 57.875061,0.023993 V -1.152008 H 50.67506 v 1.176001 l 2.040001,0.215999 z m 6.153378,-11.736 z m 3.023998,-5.976002 c -0.271999,0 -0.543999,0.015999 -0.815998,0.048001 -0.256001,0.032001 -0.439999,0.080001 -0.552002,0.144001 v 2.087999 c 0.096,-0.063999 0.280003,-0.112 0.552002,-0.143999 0.287998,-0.032 0.559997,-0.048001 0.815998,-0.048001 0.768002,0 1.440002,0.272 2.016003,0.816 0.592003,0.528 1.160003,1.552 1.704002,3.072001 h -1.152 l -4.560002,11.880001 -1.104,0.311999 v 1.128 h 5.783997 v -1.128 l -1.848,-0.288 2.352005,-7.080001 1.103996,-3.503999 1.031998,3.528 2.136002,7.056 -1.608002,0.288 v 1.128 h 4.824005 v -1.128 l -1.200004,-0.288 c -2.351998,-7.2 -3.736001,-11.288001 -4.152001,-12.264001 -0.543999,-1.375999 -1.039993,-2.448 -1.487999,-3.215999 C 65.284439,-5.512009 64.756439,-6.10401 64.148438,-6.504009 63.54044,-6.92001 62.788437,-7.12801 61.892437,-7.12801 Z m 10.254375,5.976002 z m 9.143998,-0.191999 c -2.351998,0 -4.087998,0.624 -5.208001,1.871999 -1.103996,1.264 -1.655998,3.216 -1.655998,5.855999 v 8.808003 l -1.704002,0.287998 v 1.200001 h 6.408005 v -1.200001 l -2.040001,-0.312 V 6.119991 c 0,-2.176 0.384002,-3.743999 1.152,-4.703998 0.784004,-0.960001 1.903999,-1.440001 3.360001,-1.440001 1.456001,0 2.543998,0.511999 3.264,1.536 0.736,1.024 1.103996,2.512001 1.103996,4.464 v 9.192 l -2.015999,0.312 v 1.200001 h 5.592003 V 15.479992 L 87.794815,15.191994 V 6.095993 c 0,-2.496 -0.592003,-4.360001 -1.776001,-5.592001 -1.183998,-1.232 -2.760002,-1.847999 -4.728004,-1.847999 z" /></g><g
       transform="translate(140,186.68401)"
       id="g52"><text
         id="text56"
         style="font-variant:normal;font-weight:normal;font-size:24px;font-family:Arial;-inkscape-font-specification:Arial;writing-mode:lr-tb;fill:#000000;fill-opacity:1;fill-rule:nonzero;stroke:none"
         transform="matrix(1,0,0,-1,0,-1.152008)"><tspan
           id="tspan54"
           y="0"
           x="0 18.715876 32.861439 42.178871 49.715057 58.868435 72.146812">NotifyU</tspan></text>
</g><g
       id="g58"><g
         transform="translate(152.40625,133.5625)"
         id="g60"><path
           id="path62"
           style="fill:#000000;fill-opacity:1;fill-rule:nonzero;stroke:none"
           d="m 24.188309,30.905441 1.35897,1.358971 -2e-6,4e-6 z m 2.873382,-2.873382 -1.35897,-1.358971 2e-6,-2e-6 z M 24.34375,5.765625 h -20.5 v -3.84375 h 20.5 z M 1.921875,7.6875 v 20.5 h -3.84375 v -20.5 z M 3.84375,30.109375 h 17.626617 v 3.84375 H 3.84375 Z M 26.265625,25.314117 V 7.6875 h 3.84375 v 17.626617 z m -3.436287,4.232354 2.873383,-2.873383 2.717941,2.717939 -2.873383,2.873385 z m 7.280037,-4.232354 c 0,1.529137 -0.607447,2.995648 -1.688715,4.076912 l -2.717937,-2.717943 c 0.36042,-0.36042 0.562902,-0.849256 0.562902,-1.358969 z m -8.639008,4.795258 c 0.509713,0 0.998547,-0.202482 1.358973,-0.562904 l 2.717937,2.717945 c -1.081262,1.08126 -2.547769,1.688709 -4.07691,1.688709 z M 3.84375,5.765625 c -1.061422,0 -1.921875,0.860453 -1.921875,1.921875 h -3.84375 c 0,-3.184267 2.581358,-5.765625 5.765625,-5.765625 z m 20.5,-3.84375 c 3.184267,0 5.765625,2.581358 5.765625,5.765625 h -3.84375 c 0,-1.061422 -0.860453,-1.921875 -1.921875,-1.921875 z M 1.921875,28.1875 c 0,1.061422 0.860453,1.921875 1.921875,1.921875 v 3.84375 c -3.184266,0 -5.765625,-2.581358 -5.765625,-5.765625 z" /></g><g
         transform="translate(152.40625,133.5625)"
         id="g64"><path
           id="path66"
           style="fill:#5b89ff;fill-opacity:1;fill-rule:nonzero;stroke:none"
           d="m 3.84375,3.84375 h 20.5 c 2.122845,0 3.84375,1.720905 3.84375,3.84375 v 17.626617 c 0,1.019425 -0.404964,1.997097 -1.125809,2.717942 l -2.873382,2.873382 c -0.720845,0.720845 -1.698515,1.125809 -2.717942,1.125809 H 3.84375 C 1.720906,32.03125 0,30.310345 0,28.1875 v -20.5 C 0,5.564655 1.720905,3.84375 3.84375,3.84375 Z" /></g></g><g
       id="g68"><g
         transform="translate(152.40625,133.5625)"
         id="g70"><path
           id="path72"
           style="fill:#000000;fill-opacity:1;fill-rule:nonzero;stroke:none"
           d="m 24.188309,30.905441 1.35897,1.358971 -2e-6,4e-6 z m 2.873382,-2.873382 -1.35897,-1.358971 2e-6,-2e-6 z M 24.34375,5.765625 h -20.5 v -3.84375 h 20.5 z M 1.921875,7.6875 v 20.5 h -3.84375 v -20.5 z M 3.84375,30.109375 h 17.626617 v 3.84375 H 3.84375 Z M 26.265625,25.314117 V 7.6875 h 3.84375 v 17.626617 z m -3.436287,4.232354 2.873383,-2.873383 2.717941,2.717939 -2.873383,2.873385 z m 7.280037,-4.232354 c 0,1.529137 -0.607447,2.995648 -1.688715,4.076912 l -2.717937,-2.717943 c 0.36042,-0.36042 0.562902,-0.849256 0.562902,-1.358969 z m -8.639008,4.795258 c 0.509713,0 0.998547,-0.202482 1.358973,-0.562904 l 2.717937,2.717945 c -1.081262,1.08126 -2.547769,1.688709 -4.07691,1.688709 z M 3.84375,5.765625 c -1.061422,0 -1.921875,0.860453 -1.921875,1.921875 h -3.84375 c 0,-3.184267 2.581358,-5.765625 5.765625,-5.765625 z m 20.5,-3.84375 c 3.184267,0 5.765625,2.581358 5.765625,5.765625 h -3.84375 c 0,-1.061422 -0.860453,-1.921875 -1.921875,-1.921875 z M 1.921875,28.1875 c 0,1.061422 0.860453,1.921875 1.921875,1.921875 v 3.84375 c -3.184266,0 -5.765625,-2.581358 -5.765625,-5.765625 z" /></g><g
         transform="translate(152.40625,133.5625)"
         id="g74"><path
           id="path76"
           style="fill:#0fa958;fill-opacity:1;fill-rule:nonzero;stroke:none"
           d="m 3.84375,3.84375 h 20.5 c 2.122845,0 3.84375,1.720905 3.84375,3.84375 v 17.626617 c 0,1.019425 -0.404964,1.997097 -1.125809,2.717942 l -2.873382,2.873382 c -0.720845,0.720845 -1.698515,1.125809 -2.717942,1.125809 H 3.84375 C 1.720906,32.03125 0,30.310345 0,28.1875 v -20.5 C 0,5.564655 1.720905,3.84375 3.84375,3.84375 Z" /></g></g><g
       transform="translate(157.85156,144.56317)"
       id="g78"><path
         id="path80"
         style="fill:#000000;fill-opacity:1;fill-rule:nonzero;stroke:none"
         d="m 4.54985,9.808481 c 0.359971,0.389969 0.335653,0.997915 -0.054315,1.357886 -0.389968,0.35997 -0.997914,0.335652 -1.357885,-0.05432 l 1.4122,-1.30357 z M 0,6.296204 -0.7061,6.947989 c -0.339783,-0.368099 -0.339783,-0.935472 0,-1.30357 z M 3.13765,1.480356 C 3.497621,1.090388 4.105567,1.066071 4.495535,1.426041 4.885503,1.786012 4.909821,2.393957 4.54985,2.783926 Z m 0,9.631695 L -0.7061,6.947989 0.7061,5.644419 4.54985,9.808481 Z M -0.7061,5.644419 3.13765,1.480356 4.54985,2.783926 0.7061,6.947989 Z" /></g><g
       transform="rotate(180,87.574219,78.577789)"
       id="g82"><path
         id="path84"
         style="fill:#000000;fill-opacity:1;fill-rule:nonzero;stroke:none"
         d="m 4.54985,9.808481 c 0.359971,0.389969 0.335653,0.997915 -0.054315,1.357886 -0.389968,0.35997 -0.997914,0.335652 -1.357885,-0.05432 l 1.4122,-1.30357 z M 0,6.296204 -0.7061,6.947989 c -0.339783,-0.368099 -0.339783,-0.935472 0,-1.30357 z M 3.13765,1.480356 C 3.497621,1.090388 4.105567,1.066071 4.495535,1.426041 4.885503,1.786012 4.909821,2.393957 4.54985,2.783926 Z m 0,9.631695 L -0.7061,6.947989 0.7061,5.644419 4.54985,9.808481 Z M -0.7061,5.644419 3.13765,1.480356 4.54985,2.783926 0.7061,6.947989 Z" /></g><g
       transform="translate(164.25781,142.60883)"
       id="g86"><path
         id="path88"
         style="fill:#000000;fill-opacity:1;fill-rule:nonzero;stroke:none"
         d="M 5.391364,14.659666 C 5.566685,15.160582 5.302737,15.70878 4.801821,15.884101 4.300905,16.059422 3.752707,15.795474 3.577386,15.294558 Z M -0.906989,2.482058 C -1.082309,1.981142 -0.818362,1.432943 -0.317446,1.257623 0.18347,1.082302 0.731668,1.34625 0.906989,1.847166 Z m 4.484375,12.8125 -4.484375,-12.8125 1.813978,-0.634892 4.484375,12.8125 z" /></g><g
       id="g90"><g
         transform="translate(175.46875,156.52689)"
         id="g92"><path
           id="path94"
           style="fill:#000000;fill-opacity:1;fill-rule:nonzero;stroke:none"
           d="M 4.779759,3.941855 V 2.01998 c 0.653583,0 1.262369,0.332158 1.61609,0.881751 0.353721,0.549593 0.403888,1.241281 0.133174,1.836163 z M 0,3.941855 H -1.921875 C -1.921875,2.880433 -1.061422,2.01998 0,2.01998 Z m 0,4.779764 0.796045,1.749262 C 0.201162,10.741596 -0.490527,10.691431 -1.040121,10.33771 -1.589716,9.98399 -1.921875,9.375203 -1.921875,8.721619 Z m 1.125809,-0.780563 1.358971,1.358971 -2e-6,10e-7 z M 3.999191,5.067672 2.64022,3.708702 l 2e-6,-2e-6 z M 4.779759,5.863729 H 0 V 2.01998 H 4.779759 Z M 1.921875,3.941855 v 4.779764 h -3.84375 V 3.941855 Z M 2.484778,9.300028 C 1.991801,9.793004 1.418613,10.187565 0.796045,10.470881 L -0.796045,6.972357 C -0.58847,6.877895 -0.397528,6.746451 -0.233161,6.582084 Z M 5.358162,6.426642 2.48478,9.300027 -0.233162,6.582086 2.64022,3.708702 Z M 6.529023,4.737894 C 6.245708,5.360469 5.851142,5.933663 5.35816,6.426644 L 2.640222,3.7087 C 2.80459,3.544333 2.936033,3.35339 3.030495,3.145815 Z" /></g><g
         transform="translate(175.46875,156.52689)"
         id="g96"><path
           id="path98"
           style="fill:#fff4d9;fill-opacity:1;fill-rule:evenodd;stroke:none"
           d="M 4.779759,3.941855 H 0 V 8.721619 C 0.415071,8.53273 0.797136,8.269728 1.125809,7.941056 L 3.999191,5.067672 C 4.327866,4.738998 4.59087,4.35693 4.779759,3.941855 Z" /></g></g><g
       transform="translate(82,98.695984)"
       id="g100"><path
         id="path102"
         style="fill:#1e1e1e;fill-opacity:1;fill-rule:nonzero;stroke:none"
         d="m 0,-1.00798 z m -0.096,-2.192 c 0.469333,0.138666 0.890667,0.389334 1.264,0.751999 0.373333,0.351999 0.645333,0.789333 0.816,1.312 0.138667,0.405333 0.229333,0.874667 0.272,1.408001 0.042667,0.544001 0.064,1.376 0.064,2.496 v 7.104 l -1.536,0.208 v 0.8 h 4.704 v -0.8 L 4.032,9.87202 V 3.392019 2.64002 C 4.032,1.797353 4.021333,1.120019 4,0.608019 3.978667,0.09602 3.930667,-0.341314 3.856,-0.703979 3.664,-1.557314 3.242667,-2.261314 2.592,-2.815981 1.941333,-3.370647 1.189333,-3.722647 0.336,-3.871981 Z m 6.01375,2.192 z m 0.72,2.399999 c 0,1.002668 0.501333,1.738668 1.504,2.208 1.002667,0.480001 2.272,0.736001 3.808,0.768001 v 0.448 c 0,0.501333 -0.05333,0.896 -0.16,1.184 -0.106666,0.288 -0.293333,0.496 -0.56,0.624 -0.256,0.138667 -0.624,0.208 -1.104,0.208 -0.544,0 -1.034667,-0.08 -1.472001,-0.24 C 8.227083,6.442687 7.800416,6.256021 7.37375,6.032021 l -0.4,0.831998 c 0.138667,0.117334 0.394666,0.272001 0.768,0.464001 0.373334,0.192 0.805334,0.362667 1.296,0.512 0.490667,0.149333 0.981334,0.224 1.472,0.224 0.757333,0 1.354667,-0.106666 1.792,-0.32 0.448,-0.202667 0.768,-0.533333 0.96,-0.992 0.192001,-0.458667 0.288,-1.072 0.288,-1.84 v -5.136 h 0.944 v -0.704 c -0.213334,-0.053334 -0.485334,-0.106667 -0.816,-0.16 -0.32,-0.053334 -0.602666,-0.08 -0.848,-0.08 -0.298667,0 -0.501333,0.048 -0.608,0.143999 -0.106666,0.085333 -0.16,0.282667 -0.16,0.592001 v 0.528 c -0.32,-0.32 -0.714667,-0.613333 -1.184,-0.879999 -0.458666,-0.266669 -0.981333,-0.400002 -1.568,-0.400002 -0.768,0 -1.408,0.218666 -1.92,0.656 -0.501334,0.448 -0.752,1.088001 -0.752,1.92 z m 3.36,-1.487999 c 0.277334,0 0.597333,0.085333 0.96,0.255999 0.362666,0.170668 0.693333,0.373335 0.992,0.608002 V 3.52002 c -1.162667,0 -2.042667,-0.181334 -2.64,-0.544 -0.586667,-0.352 -0.88,-0.816 -0.88,-1.392 0,-0.576 0.138667,-1.002666 0.416,-1.28 0.288,-0.266666 0.672,-0.4 1.152,-0.4 z m 4.71275,-0.912 z m -0.016,8.88 h 3.712 v -0.752 l -1.136,-0.208 1.615999,-4.608 0.672001,-2.032 0.576001,1.968 1.615999,4.672 -1.088,0.208 v 0.752 h 3.248 v -0.752 l -0.832001,-0.208 -3.088,-8.048001 H 18.630501 L 15.4145,6.91202 l -0.72,0.208 z m 8.93375,-8.88 z m 0.719999,2.399999 c 0,1.002668 0.501334,1.738668 1.504002,2.208 1.002667,0.480001 2.271999,0.736001 3.807999,0.768001 v 0.448 c 0,0.501333 -0.05333,0.896 -0.16,1.184 -0.106667,0.288 -0.293333,0.496 -0.56,0.624 -0.255998,0.138667 -0.623998,0.208 -1.104,0.208 -0.544,0 -1.034666,-0.08 -1.472,-0.24 C 25.937584,6.442687 25.510918,6.256021 25.084249,6.032021 L 24.68425,6.864019 c 0.138666,0.117334 0.394667,0.272001 0.768,0.464001 0.373334,0.192 0.805334,0.362667 1.296001,0.512 0.490667,0.149333 0.981333,0.224 1.471998,0.224 0.757334,0 1.354668,-0.106666 1.792002,-0.32 0.448,-0.202667 0.768,-0.533333 0.959999,-0.992 0.191999,-0.458667 0.288,-1.072 0.288,-1.84 v -5.136 h 0.944 v -0.704 c -0.213333,-0.053334 -0.485332,-0.106667 -0.816,-0.16 -0.319999,-0.053334 -0.602667,-0.08 -0.847999,-0.08 -0.298666,0 -0.501333,0.048 -0.608,0.143999 -0.106667,0.085333 -0.16,0.282667 -0.16,0.592001 v 0.528 c -0.320001,-0.32 -0.714668,-0.613333 -1.184002,-0.879999 -0.458666,-0.266669 -0.981333,-0.400002 -1.567999,-0.400002 -0.767999,0 -1.408001,0.218666 -1.92,0.656 -0.501333,0.448 -0.752001,1.088001 -0.752001,1.92 z M 27.70825,-0.09598 c 0.277334,0 0.597334,0.085333 0.960001,0.255999 0.362665,0.170668 0.693333,0.373335 0.991999,0.608002 V 3.52002 c -1.162667,0 -2.042666,-0.181334 -2.64,-0.544 -0.586666,-0.352 -0.879999,-0.816 -0.879999,-1.392 0,-0.576 0.138666,-1.002666 0.415999,-1.28 0.288,-0.266666 0.672001,-0.4 1.152,-0.4 z m 8.333624,-0.912 z m 8.256,4.544 h -6.464 v 1.168 h 6.464 z m 5.235753,-4.544 z m 2.063999,10.896001 -1.312001,0.191999 v 0.8 h 2.16 c 0.362667,0 0.821335,0.02133 1.376,0.064 0.512001,0.04267 0.890667,0.064 1.136001,0.064 1.472,0 2.522667,-0.229333 3.152001,-0.688 0.639999,-0.458667 0.959999,-1.130666 0.959999,-2.016 0,-0.757333 -0.218666,-1.408 -0.655998,-1.952 -0.437336,-0.543999 -1.034668,-0.885333 -1.792,-1.024 1.023998,0.021333 1.829334,-0.218667 2.416,-0.72 0.586666,-0.501333 0.879997,-1.184 0.879997,-2.048001 0,-1.077333 -0.383998,-1.957333 -1.152,-2.64 -0.757332,-0.682667 -2.015999,-1.024 -3.775997,-1.024 -0.383999,0 -0.751999,0.016001 -1.104,0.048 -0.832001,0.032 -1.328003,0.048001 -1.488003,0.048001 h -2.127998 v 0.784 l 1.327999,0.16 z M 53.293625,5.63202 c 0.149334,-0.010667 0.453335,-0.016 0.912002,-0.016 h 0.879998 c 0.746669,0 1.312004,0.208 1.696003,0.624 0.383999,0.415999 0.576,1.007999 0.576,1.776 0,0.746667 -0.192001,1.290666 -0.576,1.632 -0.383999,0.352001 -1.040001,0.528001 -1.968003,0.528001 -0.383999,0 -0.778667,-0.02133 -1.183998,-0.064 l -0.336002,-0.032 z m 0,-5.744 c 0.245335,-0.085333 0.800003,-0.128001 1.664001,-0.128001 1.077336,0 1.855999,0.218666 2.335999,0.656 0.490665,0.448 0.736,1.088001 0.736,1.920001 0,0.821333 -0.213333,1.418666 -0.639999,1.791999 -0.416001,0.373334 -1.093335,0.560001 -2.031998,0.560001 -1.088001,0 -1.776001,-0.010667 -2.064003,-0.032001 z m 7.017124,-0.896 z m 0.720001,2.399999 c 0,1.002668 0.501332,1.738668 1.503998,2.208 1.002667,0.480001 2.271999,0.736001 3.808003,0.768001 v 0.448 c 0,0.501333 -0.05334,0.896 -0.160004,1.184 -0.106667,0.288 -0.293327,0.496 -0.559998,0.624 -0.256004,0.138667 -0.624,0.208 -1.103996,0.208 -0.544002,0 -1.034668,-0.08 -1.472004,-0.24 C 62.620083,6.442687 62.193417,6.256021 61.76675,6.032021 l -0.400001,0.831998 c 0.138668,0.117334 0.394668,0.272001 0.768001,0.464001 0.373333,0.192 0.805333,0.362667 1.295998,0.512 0.490665,0.149333 0.981331,0.224 1.472,0.224 0.757332,0 1.354668,-0.106666 1.792,-0.32 0.448006,-0.202667 0.768005,-0.533333 0.959999,-0.992 0.192001,-0.458667 0.288002,-1.072 0.288002,-1.84 v -5.136 h 0.944 v -0.704 c -0.213333,-0.053334 -0.485336,-0.106667 -0.816002,-0.16 -0.319999,-0.053334 -0.602661,-0.08 -0.847999,-0.08 -0.298668,0 -0.501335,0.048 -0.608002,0.143999 -0.106666,0.085333 -0.159996,0.282667 -0.159996,0.592001 v 0.528 c -0.32,-0.32 -0.714668,-0.613333 -1.183998,-0.879999 -0.458672,-0.266669 -0.981339,-0.400002 -1.568001,-0.400002 -0.768001,0 -1.408001,0.218666 -1.920002,0.656 -0.501331,0.448 -0.751999,1.088001 -0.751999,1.92 z m 3.359997,-1.487999 c 0.277336,0 0.597336,0.085333 0.959999,0.255999 0.362671,0.170668 0.693337,0.373335 0.992005,0.608002 V 3.52002 c -1.162667,0 -2.042672,-0.181334 -2.64,-0.544 -0.586666,-0.352 -0.880001,-0.816 -0.880001,-1.392 0,-0.576 0.138668,-1.002666 0.416,-1.28 0.287999,-0.266666 0.671998,-0.4 1.151997,-0.4 z m 4.712753,-0.912 z m 2.208001,1.28 c 0.106666,-0.16 0.330665,-0.304001 0.671997,-0.432001 0.351997,-0.128 0.720001,-0.191999 1.104004,-0.191999 0.608001,0 1.055999,0.117332 1.344001,0.351999 0.288002,0.234667 0.432,0.560001 0.432,0.976 0,0.288001 -0.09067,0.538668 -0.272004,0.752001 -0.181327,0.213333 -0.437332,0.399999 -0.767997,0.56 -0.32,0.170667 -0.784005,0.373333 -1.391999,0.608 -0.821335,0.309333 -1.424003,0.677333 -1.808006,1.104 -0.373329,0.437333 -0.559998,1.007999 -0.559998,1.712 0,0.469333 0.138665,0.879999 0.416001,1.231999 0.288002,0.352001 0.67733,0.624001 1.167999,0.816001 0.501335,0.202667 1.056,0.304 1.664002,0.304 0.490669,0 0.917335,-0.037333 1.279998,-0.112 0.373337,-0.074666 0.672005,-0.149333 0.896004,-0.224 0.223999,-0.074666 0.373329,-0.122667 0.447998,-0.144 V 5.600019 h -0.975998 l -0.32,1.184 c -0.064,0.128001 -0.234664,0.234667 -0.512001,0.320001 -0.277336,0.096 -0.586669,0.144 -0.928001,0.144 -0.480003,0 -0.869331,-0.106666 -1.167999,-0.32 -0.288002,-0.213334 -0.431999,-0.501334 -0.431999,-0.864 0,-0.32 0.07467,-0.586666 0.223999,-0.8 0.159996,-0.202666 0.35733,-0.368 0.591995,-0.495999 0.234672,-0.128002 0.554672,-0.277335 0.960007,-0.448001 l 0.319999,-0.128 c 0.597328,-0.234667 1.082665,-0.458667 1.456002,-0.672 0.373329,-0.213334 0.682662,-0.496 0.927993,-0.848 0.256005,-0.341333 0.384003,-0.762667 0.384003,-1.264 0,-0.789333 -0.309334,-1.418667 -0.928001,-1.888 -0.607995,-0.469334 -1.445328,-0.704001 -2.512001,-0.704001 -0.522667,0 -1.071999,0.069334 -1.647995,0.208 -0.565331,0.149334 -1.029335,0.298668 -1.392006,0.448 V 1.52002 h 1.040001 z m 5.694122,-1.28 z m 4.655998,-0.176001 c -1.290665,0 -2.277328,0.421333 -2.959999,1.264 -0.671997,0.842667 -1.007996,1.968001 -1.007996,3.376001 0,0.928001 0.176003,1.744001 0.528,2.448 0.351998,0.704 0.842667,1.248 1.472,1.632 0.64,0.384 1.365334,0.576 2.175995,0.576 0.991997,0 1.760002,-0.277333 2.304001,-0.832 0.554665,-0.544 0.848,-1.328 0.879997,-2.352 0,-0.650667 -0.03733,-1.146667 -0.111999,-1.488 h -5.503998 c 0.02133,-1.056 0.266663,-1.909334 0.736,-2.56 0.469338,-0.640001 1.136002,-0.960001 2,-0.960001 0.426666,0 0.869331,0.074667 1.328003,0.224001 0.46933,0.16 0.831993,0.346666 1.087997,0.56 L 84.893623,1.9e-5 c -0.309333,-0.32 -0.767997,-0.597332 -1.375999,-0.831999 -0.608002,-0.234667 -1.226669,-0.352001 -1.856003,-0.352001 z m 1.632004,5.472001 c 0.032,0.224 0.048,0.453333 0.048,0.688 -0.01067,0.693333 -0.159996,1.237333 -0.447998,1.632 -0.277336,0.405333 -0.720001,0.608 -1.328003,0.608 -0.61866,0 -1.114662,-0.224 -1.487999,-0.672 -0.362663,-0.448 -0.570663,-1.2 -0.624,-2.256 h 3.840004 z m 2.239128,-5.296 z m 4.176002,-0.176001 c -0.639999,0 -1.226669,0.16 -1.760002,0.480002 -0.533332,0.319999 -0.959999,0.810667 -1.279998,1.472 -0.309334,0.661332 -0.464005,1.477332 -0.464005,2.447999 0,0.906666 0.186668,1.733333 0.560005,2.48 0.373329,0.746667 0.906662,1.333333 1.599999,1.76 0.704002,0.437333 1.53067,0.656 2.480003,0.656 0.543999,0 1.039993,-0.058667 1.487999,-0.176 v 2.992 l -1.632004,0.192 v 0.688001 l 2.879998,0.288 h 0.048 l 0.351997,-0.256001 v -12.032 h 0.928001 v -0.736 c -0.341331,-0.074667 -0.639999,-0.133334 -0.895996,-0.176001 -0.245338,-0.042665 -0.506668,-0.063999 -0.784004,-0.063999 -0.277336,0 -0.474663,0.048 -0.591995,0.143999 -0.117333,0.096001 -0.176003,0.298668 -0.176003,0.608 V 0.09602 c -0.298668,-0.362667 -0.693328,-0.666668 -1.183998,-0.912001 -0.480003,-0.245333 -1.00267,-0.368 -1.568001,-0.368 z m 0.64,1.136 c 0.416,0 0.805336,0.090667 1.167999,0.272001 0.362663,0.191999 0.634667,0.410667 0.816002,0.656 v 5.856 c -0.08534,0.128 -0.288002,0.24 -0.608002,0.336 -0.309333,0.106667 -0.640007,0.16 -0.992004,0.16 -0.831993,0 -1.498665,-0.319999 -2,-0.96 -0.490669,-0.629333 -0.736,-1.605333 -0.736,-2.928 0,-1.152 0.218666,-2.005333 0.656006,-2.560001 0.437332,-0.554666 1.002662,-0.832 1.695999,-0.832 z m 8.566368,-0.959999 z m 6.239997,-0.176001 c -1.152,0 -2.14933,0.256001 -2.992,0.768 -0.832,0.512001 -1.46666,1.216001 -1.90399,2.112001 -0.437337,0.906667 -0.656003,1.930667 -0.656003,3.072001 0,1.311999 0.255996,2.437333 0.767993,3.375999 0.52267,0.938667 1.24266,1.648001 2.16,2.128 0.91734,0.490668 1.96267,0.736 3.136,0.736 1.07734,0 2.32001,-0.165332 3.72801,-0.496 l -0.14401,-2.768 h -1.13599 l -0.384,1.920001 c -0.14933,0.117332 -0.40534,0.229332 -0.76801,0.335999 -0.352,0.106667 -0.82667,0.16 -1.424,0.16 -0.77866,0 -1.46666,-0.192001 -2.064,-0.575999 -0.59733,-0.384001 -1.06666,-0.954667 -1.408,-1.712001 -0.33066,-0.757333 -0.496,-1.674667 -0.496,-2.752 0,-0.992 0.13333,-1.898666 0.4,-2.72 0.27734,-0.821333 0.69334,-1.482667 1.248,-1.984001 0.56533,-0.490667 1.25334,-0.736 2.06401,-0.736 0.512,0 0.99733,0.058667 1.45599,0.176001 0.45867,0.128 0.81067,0.293333 1.056,0.496 v 3.568 l -2.016,0.16 v 0.943999 h 4.67201 V 4.08002 l -0.928,-0.144 v -4.304001 c -0.23467,-0.010666 -0.62401,-0.101332 -1.168,-0.271999 -0.55467,-0.170668 -1.07734,-0.304001 -1.568,-0.4 -0.49067,-0.096001 -1.03467,-0.144001 -1.63201,-0.144001 z m 5.42776,0.176001 z m 6.096,-0.128001 c -1.568,0 -2.72533,0.416001 -3.472,1.248001 -0.736,0.842667 -1.10401,2.144 -1.10401,3.904 v 5.872001 l -1.13599,0.191999 v 0.8 h 4.272 v -0.8 l -1.36,-0.208 V 3.840019 c 0,-1.450666 0.256,-2.495999 0.768,-3.135999 0.52267,-0.64 1.26933,-0.96 2.24,-0.96 0.97066,0 1.696,0.341334 2.176,1.024001 0.49067,0.682665 0.736,1.674666 0.736,2.975999 v 6.128 l -1.344,0.208 v 0.8 h 3.728 v -0.8 l -1.168,-0.191999 V 3.82402 c 0,-1.664 -0.39467,-2.906667 -1.184,-3.728 -0.78933,-0.821333 -1.84,-1.232001 -3.152,-1.232001 z m 5.57175,0.128001 z m 2.35199,10.896001 -1.488,0.191999 v 0.8 h 4.70401 v -0.8 l -1.488,-0.191999 V -0.06398 l 1.488,-0.176001 V -1.00798 h -4.68801 v 0.784 l 1.472,0.16 z m 7.546,-10.896001 z m 2.09599,10.896001 -1.24798,0.191999 v 0.8 h 2.12799 c 0.384,0 0.76266,0.016 1.136,0.048 0.576,0.04267 1.11999,0.064 1.632,0.064 1.54666,-0.01067 2.64,-0.298667 3.28,-0.864001 0.64,-0.565333 0.95999,-1.418667 0.95999,-2.56 0,-0.853334 -0.19732,-1.594667 -0.59199,-2.224 -0.39467,-0.629333 -0.944,-1.109333 -1.648,-1.44 -0.69334,-0.330666 -1.49334,-0.496 -2.40001,-0.496 -0.30932,0 -0.62399,0.00533 -0.944,0.016 -0.31999,0.021334 -0.51733,0.037333 -0.59199,0.047999 v -3.52 l 2.192,-0.175999 v -0.784 h -5.23199 v 0.784 l 1.32798,0.16 V 9.88802 Z m 1.71201,-5.536001 c 0.29866,-0.053333 0.81067,-0.08 1.53599,-0.08 0.84267,0 1.52535,0.256 2.04801,0.768 0.53334,0.512 0.8,1.349333 0.8,2.512 0,0.917334 -0.22934,1.573334 -0.688,1.968 -0.45867,0.405334 -1.17334,0.608 -2.144,0.608 -0.34132,0 -0.70399,-0.02133 -1.088,-0.064 -0.23466,-0.02133 -0.38934,-0.032 -0.464,-0.032 z m 6.40663,-5.36 z m 0.752,0.784 1.2,0.095999 V 6.64002 l -1.152,0.288 v 0.864 l 2.208,0.288 h 0.032 l 0.35201,-0.288 v -0.288 l -0.048,-1.248 h 0.048 c 0.10667,0.181333 0.29867,0.416 0.576,0.704 0.27733,0.288 0.63466,0.549334 1.07199,0.784 0.43734,0.245334 0.91201,0.368 1.42401,0.368 0.21334,0 0.38933,-0.026666 0.528,-0.08 v -1.792 c -0.0747,0.053334 -0.19734,0.101333 -0.36801,0.144 -0.15999,0.053333 -0.34132,0.08 -0.54399,0.08 -0.88533,0 -1.70666,-0.272001 -2.464,-0.816 v -5.76 l 2.032,-0.128001 V -1.00798 h -4.896 v 0.784 z m 6.40013,-0.784 z m 0.72,4.464 c 0,0.96 0.19733,1.792 0.592,2.496001 0.39467,0.703999 0.912,1.237333 1.552,1.599999 0.65066,0.373334 1.34399,0.56 2.08,0.56 1.34401,0 2.35201,-0.426667 3.024,-1.28 0.68267,-0.853334 1.024,-1.973334 1.024,-3.360001 0,-0.970666 -0.19734,-1.807999 -0.59201,-2.511999 -0.39466,-0.704 -0.91732,-1.237333 -1.56799,-1.6 -0.64,-0.362667 -1.328,-0.544001 -2.06399,-0.544001 -1.34401,0 -2.35735,0.426666 -3.04001,1.280001 -0.672,0.853332 -1.008,1.973333 -1.008,3.36 z m 4.144,-3.728 c 0.73601,0 1.30133,0.304001 1.696,0.912 0.39467,0.608 0.59201,1.509333 0.59201,2.704 0,1.184 -0.18134,2.122666 -0.54401,2.816 -0.36267,0.693334 -0.944,1.04 -1.744,1.04 -0.73601,0 -1.30667,-0.304 -1.71201,-0.912 -0.39467,-0.608 -0.59199,-1.509333 -0.59199,-2.704 0,-1.184 0.18666,-2.122667 0.56,-2.815999 0.37333,-0.693335 0.95466,-1.040001 1.744,-1.040001 z m 4.69437,-0.736 z m 2.59199,10.48 c -0.33067,0 -0.58133,0.096 -0.752,0.288 -0.17067,0.192001 -0.256,0.437333 -0.256,0.736 0,0.341334 0.10134,0.624 0.30401,0.848 0.21333,0.224 0.50132,0.336 0.86399,0.336 0.36268,0 0.62934,-0.096 0.80001,-0.288 0.17067,-0.192 0.25599,-0.437333 0.25599,-0.736 0,-0.362666 -0.10666,-0.650666 -0.31999,-0.864 -0.20267,-0.213333 -0.496,-0.32 -0.88,-0.32 h -0.016 z m -1.92,-1.696 2.48,0.304 h 0.032 l 0.35199,-0.288 v -8.688001 c 0,-0.885332 -0.128,-1.626665 -0.384,-2.223999 -0.256,-0.608 -0.60266,-1.056 -1.04,-1.344 -0.43733,-0.288 -0.928,-0.432001 -1.472,-0.432001 -0.416,0 -0.66133,0.021334 -0.73599,0.064001 l -0.08,0.751999 c 0.0853,-0.010666 0.20799,0 0.368,0.032 0.17067,0.031999 0.34132,0.08 0.51199,0.144001 0.43733,0.149332 0.74133,0.511999 0.912,1.087999 0.18134,0.565334 0.27201,1.328001 0.27201,2.288 V 6.59202 l -1.21601,0.288 v 0.896 z m 4.23014,-8.784 z m 4.656,-0.176001 c -1.29066,0 -2.27734,0.421333 -2.96001,1.264 -0.67199,0.842667 -1.00799,1.968001 -1.00799,3.376001 0,0.928001 0.17599,1.744001 0.528,2.448 0.352,0.704 0.84267,1.248 1.472,1.632 0.64,0.384 1.36532,0.576 2.17599,0.576 0.99201,0 1.76001,-0.277333 2.304,-0.832 0.55468,-0.544 0.84801,-1.328 0.88001,-2.352 0,-0.650667 -0.0373,-1.146667 -0.112,-1.488 h -5.504 c 0.0213,-1.056 0.26666,-1.909334 0.73599,-2.56 0.46933,-0.640001 1.13601,-0.960001 2,-0.960001 0.42667,0 0.86934,0.074667 1.32801,0.224001 0.46933,0.16 0.832,0.346666 1.08799,0.56 L 171.86388,1.9e-5 c -0.30935,-0.32 -0.76801,-0.597332 -1.37601,-0.831999 -0.60799,-0.234667 -1.22666,-0.352001 -1.85599,-0.352001 z m 1.63199,5.472001 c 0.032,0.224 0.048,0.453333 0.048,0.688 -0.0107,0.693333 -0.15998,1.237333 -0.44799,1.632 -0.27733,0.405333 -0.72001,0.608 -1.32801,0.608 -0.61866,0 -1.11465,-0.224 -1.48799,-0.672 -0.36267,-0.448 -0.57068,-1.2 -0.62401,-2.256 z m 2.23914,-5.296 z m 0.528,4.384 c 0,0.885333 0.17066,1.685333 0.51199,2.4 0.352,0.714667 0.864,1.280001 1.53601,1.696 0.68266,0.426667 1.49867,0.64 2.448,0.64 0.45866,0 0.85333,-0.042666 1.18399,-0.128 0.33067,-0.085334 0.72534,-0.202667 1.184,-0.352 l -0.064,-2.464 h -1.04001 l -0.35199,1.632 c -0.064,0.298667 -0.46934,0.448 -1.216,0.448 -0.74666,0 -1.33867,-0.304 -1.776,-0.912 -0.42667,-0.597333 -0.64,-1.450667 -0.64,-2.56 0,-1.258667 0.24,-2.218667 0.72,-2.880001 0.49066,-0.650667 1.12532,-0.976 1.90399,-0.976 0.44801,0 0.86934,0.069334 1.26401,0.208 0.40533,0.138666 0.752,0.304001 1.03999,0.496001 l 0.304,-0.64 c -0.28799,-0.298666 -0.71466,-0.570667 -1.28,-0.816 -0.55467,-0.234667 -1.11999,-0.352001 -1.696,-0.352001 -0.87466,0 -1.61599,0.197334 -2.224,0.592001 -0.59733,0.394667 -1.05065,0.933332 -1.36,1.615999 -0.29866,0.693334 -0.44799,1.477334 -0.44799,2.352001 z m 7.49911,-4.384 z m 3.45599,-0.16 c -0.60798,0 -1.06132,0.138666 -1.36,0.416 -0.29866,0.277334 -0.44799,0.752001 -0.44799,1.424 v 6.144 h -1.152 v 0.72 c 0.0533,0.010667 0.20267,0.048 0.448,0.112 0.24533,0.064 0.41066,0.122667 0.496,0.176 0.17067,0.096 0.304,0.288 0.4,0.576 0.0853,0.202667 0.18667,0.528 0.304,0.976 0.11734,0.448 0.18667,0.714667 0.20801,0.800001 h 0.944 l 0.032,-2.304001 h 2.672 v -1.056 h -2.672 v -4.912 c 0,-0.608 0.016,-1.034668 0.048,-1.28 0.0427,-0.245333 0.12266,-0.405333 0.23999,-0.48 0.128,-0.074667 0.34134,-0.111999 0.64,-0.111999 0.28801,0 0.60267,0.037332 0.944,0.111999 0.352,0.074667 0.62401,0.154667 0.81601,0.24 l 0.23999,-0.719999 c -0.256,-0.192 -0.672,-0.378668 -1.248,-0.560002 -0.56533,-0.181333 -1.08266,-0.271999 -1.55201,-0.271999 z" /></g><g
       transform="translate(82,98.695984)"
       id="g104"><text
         id="text108"
         style="font-variant:normal;font-weight:normal;font-size:16px;font-family:Arial;-inkscape-font-specification:Arial;writing-mode:lr-tb;fill:#000000;fill-opacity:1;fill-rule:nonzero;stroke:none"
         transform="matrix(1,0,0,-1,0,-1.00798)"><tspan
           id="tspan106"
           y="0"
           x="0 5.9177499 14.710499 23.628248 32.420998 36.04187 45.912746 49.533623 60.310741 69.103493 77.005615 85.532738 95.294235 98.915108 110.58286 122.25061 128.52774 132.14861 142.36322 149.51535 159.07372 163.97585 172.50298 180.53009">Java - Based GUI Project</tspan></text>
</g></g></svg>